<svg xmlns="http://www.w3.org/2000/svg" width="1000" height="128.62" overflow="visible"><path d="M934.611 32.6h-40.934c-6.87.407-8.79 2.11-8.79 10.451v22.993h49.724zm21.796-18.411v100.26H934.61V85.63h-49.724v28.82h-21.795v-78.6c0-13.889 5.625-21.661 21.795-21.661zM841.299 35.83v54.26c0 17.273-9.702 24.341-21.798 24.341h-68.747V14.17h68.747c18.566 0 21.798 11.804 21.798 21.66zm-22.056 6.035c0-5.494-3.348-9.283-9.21-9.283h-37.48v62.646l37.48-.003c8.537-.433 9.21-5.553 9.21-9.614zM306.47 14.17h21.795v39.518h48.763V14.17h21.795v100.258h-21.795V73.513h-48.763v40.915H306.47V14.17zm129.708 0L463.5 55.158l26.995-40.988h26.465l-42.573 64.099v36.162H452.59V78.264L409.72 14.17zm203.128 0h70.235c10.01 0 19.702 1.405 19.419 21.66v78.601h-21.795V43.033c0-8.634-1.036-10.451-7.81-10.451h-38.249v81.849h-21.8zm360.695.019v100.26h-21.8V14.19zM527.86 114.43h70.23c13.964 0 19.705-4.04 19.422-24.172V14.17h-21.795v71.574c0 8.58-1.036 9.622-7.81 9.622h-38.249l-.002-81.195H527.86zM152.624 79.173c1.921 9.932-3.284 18.18-7.61 26.188-4.803 7.45-12.732 13.853-22.263 12.895-21.386-.32-42.288-3.604-61.671-9.453-.88-.24-1.76-.802-2.242-1.601-.401-1.123.161-2.164.96-2.883 17.702-14.337 38.766-20.982 59.59-27.953 7.767-2.242 16.02-4.645 24.748-3.523 3.6.482 7.205 2.966 8.489 6.33zm72.962-42.446c9.931 8.168 18.902 19.303 15.858 32.757-4.966 19.863-26.59 30.435-43.809 37.16-9.372 3.125-18.821 6.33-29.073 7.292-.64-.081-1.682.078-1.843-.883l.24-1.12c14.576-16.42 25.627-34.838 35.321-53.5 4.484-8.41 8.65-17.058 12.494-25.55.56-.64 1.122-.96 1.763-1.2 3.601.317 6.166 3.122 9.049 5.044zM85.825 15.583l-.32 1.2C64.44 40.73 50.585 68.521 37.452 96.151c-2.563 2.403-5.047-.802-7.37-1.844C18.389 86.62 7.817 74.205 10.86 59.47c4.885-19.22 24.667-29.471 41.168-36.436 9.77-3.685 19.944-6.648 30.675-8.33 1.122-.003 2.562-.162 3.122.88zm104.522 3.843c1.2.64 2.643.88 3.364 2.08.64 1.362-.64 2.243-1.362 3.125-16.58 12.973-35.56 20.183-54.943 26.51-9.853 2.404-19.785 6.73-30.755 4.326-2.565-.64-4.885-2.323-6.327-4.807-2.724-7.528.96-15.376 4.163-21.943 4.245-8.25 11.775-17.941 22.186-18.1 22.425-.161 43.569 3.203 63.674 8.81zm27.71.64c16.98 9.291 36.203 25.628 34.2 47.413-2.322 20.183-21.143 34.278-37.962 42.77-49.097 23.466-118.054 24.185-168.753 3.684C28.4 106.806 9.178 94.553 1.968 76.13c-5.526-15.136 1.2-30.914 12.496-41.405C38.09 13.26 68.204 5.894 99.201 1.646c33.64-4.085 69.038-.481 99.153 9.851 6.728 2.484 13.376 5.208 19.704 8.57z" clip-rule="evenodd" fill="#003984" fill-rule="evenodd"/></svg>